<svg width="31" height="24" viewBox="0 0 31 24" fill="none" xmlns="http://www.w3.org/2000/svg">
<path id="Vector" d="M24.0135 21.7661L24.0701 16.7777C24.0701 14.7193 23.3828 12.8215 22.2252 11.3012M24.0135 21.7661L24.9972 22.8614M24.0135 21.7661L7.00123 21.7661M6.40758 6.01804L4.21738 4.32947L5.90028 6.44505M6.40758 6.01804C8.76716 4.12654 11.7623 2.99513 15.0217 2.99513C19.3597 2.99513 23.2296 4.99923 25.756 8.13206M6.40758 6.01804L7.60778 6.94335M5.90028 6.44505C3.04176 8.97041 1.23912 12.6635 1.23912 16.7777L1.23912 21.7661L2.22288 22.8614M5.90028 6.44505L6.81816 7.59893M2.22288 22.8614L7.01366 22.8614L7.00123 21.7661M2.22288 22.8614L2.22288 21.7661L2.22288 17.873C2.22288 13.7905 3.99785 10.1226 6.81816 7.59893M24.9972 22.8614L29.788 22.8614L29.788 17.873C29.788 14.0695 28.2473 10.6258 25.756 8.13206M24.9972 22.8614L25.0097 21.7661L25.0538 17.873C25.0538 15.2848 23.9672 12.9504 22.2252 11.3012M6.81816 7.59893L8.85345 10.1575L9.7729 11.3133M7.00123 21.7661L6.95705 17.873C6.95705 15.2912 8.0384 12.9619 9.7729 11.3133M25.756 8.13206C23.2615 5.63509 19.8138 4.09044 16.0054 4.09044C12.8449 4.09044 9.93284 5.15426 7.60778 6.94335M7.60778 6.94335L10.3279 9.04043L11.5598 9.99021M22.2252 11.3012C20.6037 9.76608 18.4145 8.82461 16.0054 8.82461C14.3897 8.82461 12.8728 9.24813 11.5598 9.99021M9.7729 11.3133L12.728 15.0282V15.0282C13.1633 15.6249 13.3289 16.3783 13.6412 17.0476C14.0563 17.9373 14.9589 18.5539 16.0054 18.5539C17.4455 18.5539 18.613 17.3865 18.613 15.9464C18.613 14.895 17.9907 13.9889 17.0943 13.5764C16.4298 13.2706 15.6826 13.1174 15.0794 12.7037V12.7037L11.5598 9.99021" stroke="white" stroke-width="1.2" stroke-miterlimit="16"/>
</svg>
