<svg width="37" height="26" viewBox="0 0 37 26" fill="none" xmlns="http://www.w3.org/2000/svg">
<path id="Vector 5" d="M5.00818 7.55422L17.7785 1.35449L23.7087 9.60151M5.00818 7.55422L11.0623 16.9283M5.00818 7.55422L4.73887 8.02067L5.23686 8.79636M11.0623 16.9283L23.7087 9.60151M11.0623 16.9283L12.144 17.5528M11.0623 16.9283L10.8305 17.509M23.7087 9.60151L24.6315 10.3728M24.6315 10.3728L12.144 17.5528M24.6315 10.3728L35.3409 14.3578M12.144 17.5528L22.6945 21.6846M12.144 17.5528L11.9121 18.1335M22.6945 21.6846L35.3409 14.3578M22.6945 21.6846L22.6643 22.3922M35.3409 14.3578L35.1064 15.1486L33.5751 16.0401M10.5986 18.0897L1.53301 11.386L1.8333 10.8659M10.5986 18.0897L11.6802 18.7142M10.5986 18.0897L10.8305 17.509M11.6802 18.7142L21.7497 24.5278M11.6802 18.7142L11.9121 18.1335M21.7497 24.5278L34.396 17.201L34.5625 16.4791M21.7497 24.5278L21.8203 23.854M1.8333 10.8659L10.8305 17.509M1.8333 10.8659L5.23686 8.79636M10.8305 17.509L5.23686 8.79636M11.9121 18.1335L21.8203 23.854M11.9121 18.1335L22.6643 22.3922M21.8203 23.854L34.5625 16.4791M34.5625 16.4791L33.5751 16.0401M22.6643 22.3922L33.5751 16.0401" stroke="white" stroke-width="1.2"/>
</svg>
