<svg width="29" height="27" viewBox="0 0 29 27" fill="none" xmlns="http://www.w3.org/2000/svg">
<path id="Vector" d="M9.36786 1.63178L20.9003 3.56417M9.36786 1.63178L9.96451 1.15479L21.4969 3.08718M9.36786 1.63178L8.53447 4.61352M20.9003 3.56417L20.0555 6.58646M20.9003 3.56417L21.4969 3.08718M17.2186 5.50544L26.8185 12.1817M17.2186 5.50544L14.6708 8.44462M17.2186 5.50544L17.8152 5.02845L20.0555 6.58646M16.5286 24.0524L26.8185 12.1817M16.5286 24.0524L17.1252 23.5754L27.4151 11.7047M16.5286 24.0524L15.5034 23.3394M26.8185 12.1817L27.4151 11.7047M1.35616 5.72283L1.18739 21.4317L3.23389 21.2351M1.35616 5.72283L1.95281 5.24584L8.53447 4.61352M1.35616 5.72283L12.9957 4.60457M12.9957 4.60457L12.9611 7.82854M12.9957 4.60457L13.5924 4.12758M9.94196 7.43258L20.9427 11.3967M9.94196 7.43258L3.23389 21.2351M9.94196 7.43258L10.5386 6.95559L12.9611 7.82854M14.0758 25.5262L3.07499 21.562L3.23389 21.2351M14.0758 25.5262L20.9427 11.3967M14.0758 25.5262L14.6724 25.0492L15.5034 23.3394M20.9427 11.3967L21.5393 10.9197M21.4969 3.08718L20.4435 6.85625M27.4151 11.7047L20.4435 6.85625M20.4435 6.85625L20.0555 6.58646M13.5924 4.12758L13.5504 8.04087M13.5924 4.12758L8.53447 4.61352M21.5393 10.9197L15.5034 23.3394M21.5393 10.9197L14.6708 8.44462M13.5504 8.04087L14.6708 8.44462M13.5504 8.04087L12.9611 7.82854" stroke="white" stroke-width="1.2"/>
</svg>
