<svg width="27" height="29" viewBox="0 0 27 29" fill="none" xmlns="http://www.w3.org/2000/svg">
<path id="Vector" d="M14.1248 6.39454C16.4491 6.39454 18.598 7.14533 20.3423 8.41762M14.1248 6.39454C14.0454 6.39454 13.9662 6.39541 13.8872 6.39715M14.1248 6.39454C14.0427 6.39589 13.9635 6.39677 13.8872 6.39715M24.6867 16.9565V16.9592M6.49299 24.2579C8.41578 26.2672 11.1241 27.5184 14.1248 27.5184C19.9571 27.5184 24.6853 22.7911 24.6867 16.9592M6.49299 24.2579C5.18465 22.8908 4.24002 21.1727 3.81453 19.2591M6.49299 24.2579C4.39364 22.7267 2.88043 20.44 2.35309 17.7977M20.3423 8.41762C18.8874 6.89728 16.9826 5.81092 14.8419 5.37227M20.3423 8.41762C22.7938 10.2057 24.446 13.0239 24.6625 16.2356M14.8419 4.17711H16.8913V2.39709M14.8419 4.17711H11.2802M14.8419 4.17711V5.16387M14.8419 5.37227V5.77584C14.7301 6.06547 14.5357 6.18276 14.2795 6.25988C14.0233 6.33699 12.8482 6.39454 12.8482 6.39454C12.67 6.39715 12.3414 6.39454 11.9014 6.21532C11.475 6.04162 11.245 5.57343 11.2802 5.37227V5.25317M14.8419 5.37227V5.16387M13.8872 6.39715C9.305 6.49826 5.44231 9.5176 4.08405 13.6703M9.94406 4.17711V2.39709M9.94406 4.17711L9.02854 3.2616V1.48157M9.94406 4.17711H11.2802M9.94406 2.39709H16.8913M9.94406 2.39709L9.02854 1.48157M16.8913 2.39709L15.9758 1.48157H9.02854M11.2802 4.17711V4.71514M11.2802 5.25317C6.16025 5.94632 2.20525 10.3083 2.14922 15.6051M11.2802 5.25317V4.71514M23.121 15.9787C22.6335 11.4413 18.7917 7.90804 14.1248 7.90804C10.4046 7.90804 7.20877 10.1531 5.81827 13.3623M23.121 15.9787L10.7179 13.9116L8.03003 16.5994L10.7179 19.2873L23.1697 17.212M23.121 15.9787L24.6625 16.2356M23.1697 17.212C23.0344 22.0912 19.0366 26.0049 14.1248 26.0049C10.1504 26.0049 6.77452 23.4426 5.55895 19.8798M23.1697 17.212L24.6867 16.9592M24.6625 16.2356L26.8451 16.5994L24.6867 16.9592M3.81453 19.2591L4.59577 20.0403L5.55895 19.8798M3.81453 19.2591L2.35309 17.7977M4.08405 13.6703L4.59577 13.1585L5.81827 13.3623M4.08405 13.6703L2.14922 15.6051M5.1787 15.5908L7.1802 13.5893L5.81827 13.3623M5.1787 15.5908L4.17005 16.5994L5.09377 17.5231M5.1787 15.5908C5.11127 16.0362 5.07631 16.4923 5.07631 16.9565C5.07631 17.1468 5.08219 17.3357 5.09377 17.5231M5.09377 17.5231L7.18024 19.6096L5.55895 19.8798M2.35309 17.7977L1.15485 16.5994L2.14922 15.6051M11.2802 4.71514C11.9499 5.5621 13.0471 5.4107 14.4333 5.2194C14.5669 5.20097 14.7031 5.18218 14.8419 5.16387" stroke="white" stroke-width="1.2"/>
</svg>
